<svg xmlns="http://www.w3.org/2000/svg" viewBox="0 0 490 320" width="490" height="320">
  <style>
    .card-bg { fill: #0d1117; stroke: #30363d; stroke-width: 1px; }
    .title-bar { fill: #161b22; }
    .dot-red { fill: #ff5f56; }
    .dot-yellow { fill: #ffbd2e; }
    .dot-green { fill: #27c93f; }
    .title-text { font-family: ui-monospace, SFMono-Regular, "SF Mono", Menlo, Consolas, "Liberation Mono", monospace; font-size: 12px; fill: #8b949e; font-weight: 600; }
    .key { font-family: ui-monospace, SFMono-Regular, "SF Mono", Menlo, Consolas, "Liberation Mono", monospace; font-size: 13px; fill: #58a6ff; font-weight: bold; }
    .value { font-family: ui-monospace, SFMono-Regular, "SF Mono", Menlo, Consolas, "Liberation Mono", monospace; font-size: 13px; fill: #c9d1d9; }
    .prompt { font-family: ui-monospace, SFMono-Regular, "SF Mono", Menlo, Consolas, "Liberation Mono", monospace; font-size: 13px; fill: #79c0ff; font-weight: bold; }
  </style>
  <rect width="490" height="320" class="card-bg" rx="10"/>
  <path d="M 0 10 Q 0 0 10 0 L 480 0 Q 490 0 490 10 L 490 35 L 0 35 Z" class="title-bar"/>
  <circle cx="20" cy="18" r="5" class="dot-red"/>
  <circle cx="36" cy="18" r="5" class="dot-yellow"/>
  <circle cx="52" cy="18" r="5" class="dot-green"/>
  <text x="72" y="22" class="title-text">hashim@dev-box:~ (neofetch)</text>
  <g transform="translate(25, 0)">
    <g>
      <text x="0" y="75" class="prompt">&#10095;</text>
      <text x="20" y="75" class="key">OS:</text>
      <text x="110" y="75" class="value">Developer Workstation v2.6</text>
    </g>
    <g>
      <text x="0" y="103" class="prompt">&#10095;</text>
      <text x="20" y="103" class="key">Host:</text>
      <text x="110" y="103" class="value">Next.js / React / Tailwind CSS</text>
    </g>
    <g>
      <text x="0" y="131" class="prompt">&#10095;</text>
      <text x="20" y="131" class="key">Role:</text>
      <text x="110" y="131" class="value">Full-Stack Web Developer</text>
    </g>
    <g>
      <text x="0" y="159" class="prompt">&#10095;</text>
      <text x="20" y="159" class="key">Stack:</text>
      <text x="110" y="159" class="value">TypeScript, Python, Supabase, Vercel</text>
    </g>
    <g>
      <text x="0" y="187" class="prompt">&#10095;</text>
      <text x="20" y="187" class="key">Current:</text>
      <text x="110" y="187" class="value">Building CampusKey Platform</text>
    </g>
    <g>
      <text x="0" y="215" class="prompt">&#10095;</text>
      <text x="20" y="215" class="key">Status:</text>
      <text x="110" y="215" class="value">Optimizing UI/UX & AI Workflows</text>
    </g>
  </g>
</svg>